<svg width="28" height="28" viewBox="0 0 28 28" xmlns="http://www.w3.org/2000/svg">
    <path d="m25.219 23.894-5.343-5.34a9.934 9.934 0 0 0 2.29-6.362c0-5.51-4.465-9.975-9.974-9.975-5.51 0-9.975 4.465-9.975 9.975s4.465 9.975 9.975 9.975c2.418 0 4.634-.86 6.361-2.291l5.344 5.343a.936.936 0 0 0 1.325 0 .943.943 0 0 0-.003-1.325zm-9.874-4.234a8.02 8.02 0 0 1-3.153.636 8.086 8.086 0 0 1-5.73-2.374 8.086 8.086 0 0 1-2.375-5.73 8.086 8.086 0 0 1 2.374-5.73 8.086 8.086 0 0 1 5.73-2.375 8.086 8.086 0 0 1 5.73 2.374 8.086 8.086 0 0 1 2.375 5.73 8.086 8.086 0 0 1-2.374 5.73 8.057 8.057 0 0 1-2.577 1.739z" fill="#FFF" fill-rule="evenodd"/>
</svg>
