<svg width="525" height="132" viewBox="0 0 525 132" xmlns="http://www.w3.org/2000/svg">
    <g fill="#FFF" fill-rule="nonzero">
        <path d="M12.127 26.84c-2.908 2.933-6.26 5.5-10.057 7.7l-.665-1.32c2.908-2.543 5.324-5.11 7.247-7.7 1.922-2.592 4.264-6.283 7.024-11.074.74.343 1.948.93 3.624 1.76.098-.537.148-2.444.148-5.72H4.88c-1.281 0-2.317.147-3.105.44L0 8.213c1.035.245 2.268.367 3.697.367h15.75V4.327A47.91 47.91 0 0 0 19.227 0c4.93 1.076 7.394 1.956 7.394 2.64 0 .342-.567.807-1.7 1.393V8.58H42V4.62c0-1.271-.074-2.689-.222-4.253 5.521 1.075 8.282 1.98 8.282 2.713 0 .391-.789.88-2.366 1.467V8.58h8.873l2.588-3.887c.345-.538.74-.806 1.183-.806.74 0 2.108.916 4.104 2.75 1.997 1.833 2.995 2.97 2.995 3.41 0 .293-.468.44-1.405.44H47.695c0 1.662.037 2.933.11 3.813.075.88.112 1.405.112 1.576 0 .171-.124.343-.37.514-.247.17-.986.427-2.218.77-1.233.342-2.096.513-2.589.513-.493 0-.739-.269-.739-.807v-6.38H24.92v4.987c0 .342-.05.574-.148.697-.099.122-.506.305-1.22.55-.715.244-1.467.44-2.256.586.296.196.444.404.444.624 0 .22-.407.427-1.22.623-.814.196-1.516.66-2.108 1.393h33.35l2.07-2.786c.444-.587.863-.88 1.257-.88.395 0 1.418.794 3.07 2.383 1.65 1.589 2.476 2.542 2.476 2.86 0 .318-.394.477-1.183.477H38.526v4.546h11.461l1.997-2.566c.345-.392.714-.587 1.109-.587.394 0 1.306.648 2.736 1.943 1.43 1.296 2.144 2.115 2.144 2.457 0 .342-.419.513-1.257.513h-18.19v4.547h11.757l1.922-2.42c.444-.538.863-.807 1.258-.807.394 0 1.43.648 3.105 1.943 1.676 1.296 2.514 2.127 2.514 2.494 0 .366-.394.55-1.183.55H38.526v4.766h14.64l1.997-2.493c.345-.489.666-.733.962-.733.591 0 1.799.66 3.623 1.98 1.824 1.32 2.736 2.15 2.736 2.493 0 .342-.395.513-1.183.513H17.599c0 .734-.148 1.21-.444 1.43-.295.22-1.109.501-2.44.844-1.33.342-2.12.513-2.366.513-.247 0-.37-.196-.37-.587l.074-3.08c.05-.929.074-2.077.074-3.446V26.84zM17.599 22v4.546h15.085V22H17.599zm0 6.306v4.547h15.085v-4.547H17.599zm0 6.307v4.766h15.085v-4.766H17.599zm12.57-23.247c2.564.538 4.56 1.15 5.99 1.834 1.43.684 2.145 1.552 2.145 2.603 0 1.051-.308 1.968-.925 2.75-.616.782-1.22 1.173-1.811 1.173-.592 0-1.085-.489-1.48-1.466-1.084-2.836-2.538-4.84-4.362-6.014l.444-.88zM14.568 46.273c5.57-1.125 10.5-2.592 14.79-4.4 2.661 2.395 3.992 3.984 3.992 4.766 0 .293-.16.44-.48.44-.32 0-.789-.098-1.405-.293-.616-.196-1.344-.293-2.182-.293-.838 0-1.774.073-2.81.22-4.24.537-8.355.88-12.348 1.026v6.6h9.39l2.515-3.227c.394-.488.813-.733 1.257-.733.444 0 1.43.758 2.958 2.273 1.528 1.516 2.292 2.481 2.292 2.897 0 .416-.37.623-1.11.623H14.125v6.087H51.91v-5.94H40.596c-1.331 0-2.366.171-3.106.513l-1.33-2.713c1.035.244 2.267.367 3.697.367H51.91v-6.16H40.818c-.937 0-1.824.17-2.662.513l-1.923-2.86c1.38.245 2.613.367 3.698.367h11.091l1.405-2.347c.296-.489.592-.733.888-.733.295 0 1.565.599 3.808 1.797 2.243 1.197 3.364 2.016 3.364 2.456 0 .44-.838 1.051-2.514 1.833v8.434c0 1.955.037 3.617.111 4.986.074 1.37.111 2.176.111 2.42 0 .245-.21.501-.629.77-.419.269-1.257.599-2.514.99s-2.095.587-2.514.587c-.419 0-.628-.27-.628-.807V64.02H14.124v1.393c0 .44-.087.746-.26.917-.172.17-.862.476-2.07.916-1.207.44-2.206.66-2.994.66-.296 0-.444-.293-.444-.88l.148-3.006c.049-2.053.074-4.278.074-6.673v-8.36a71.48 71.48 0 0 0-.222-5.353c2.267.733 4.338 1.613 6.211 2.64zM90.38 33.879c-.493.978-1.072 1.711-1.738 2.2-.665.49-1.343.734-2.033.734a1.16 1.16 0 0 1-.962-.477c-.246-.318-.443-.966-.591-1.943-.247-1.81-.604-3.337-1.073-4.584-.468-1.246-1.244-2.652-2.329-4.216l.74-.733h-4.585c-.592 0-1.183.048-1.775.146-.591.098-1.035.22-1.33.367l-1.332-3.227c.69.147 1.294.245 1.812.294.518.048 1.146.073 1.886.073h11.313V14.52h-7.099c-.591 0-1.183.049-1.774.146-.592.098-1.035.22-1.331.367l-1.48-3.227c.691.147 1.295.245 1.813.294.517.049 1.146.073 1.885.073h7.986V4.107c0-1.81-.05-3.105-.148-3.887l3.698.917c1.084.269 2.095.55 3.031.843 1.036.342 1.529.709 1.48 1.1-.05.391-.79 1.075-2.22 2.053v7.04H97.7l2.367-3.886c.394-.538.714-.832.96-.88.247-.05.691.195 1.332.733a67.648 67.648 0 0 1 2.662 2.236c.74.66 1.528 1.406 2.366 2.237.493.489.666.929.518 1.32-.148.391-.69.587-1.627.587H94.225v7.993h6.285l2.219-3.3c.394-.636.751-.953 1.072-.953.32 0 .9.317 1.738.953a31.341 31.341 0 0 1 2.218 1.833c.64.587 1.356 1.296 2.144 2.127 0 .049.025.073.074.073V6.857c0-1.198-.049-2.286-.148-3.264 1.43.538 2.65 1.04 3.66 1.504a48.88 48.88 0 0 1 2.995 1.503h12.128l1.922-2.713c.296-.392.555-.612.777-.66.221-.05.603.073 1.146.366.936.538 1.688.978 2.255 1.32.567.342 1.27.807 2.107 1.394.839.586 1.159 1.136.962 1.65-.197.513-1.085 1.112-2.662 1.796 0 1.369-.087 3.092-.26 5.17a51.788 51.788 0 0 1-.997 6.563c-.543 2.347-2.786 4.131-6.73 5.354-1.084.342-1.848.403-2.292.183-.443-.22-.665-.599-.665-1.137 0-1.124-.432-2.04-1.294-2.75-.863-.709-2.428-1.552-4.696-2.53l.148-1.466c1.972.293 3.599.55 4.88.77 1.282.22 2.317.317 3.106.293.789-.024 1.356-.183 1.701-.477.345-.293.567-.782.665-1.466.198-1.418.37-3.031.518-4.84a108.3 108.3 0 0 0 .296-4.693H115.52v22.366c.493.098.961.159 1.405.183.444.025.986.037 1.627.037h12.275l1.775-2.494c.345-.44.64-.684.887-.733.246-.049.64.073 1.183.367.986.538 1.762.965 2.33 1.283.566.318 1.17.672 1.811 1.063.887.538 1.319.978 1.294 1.32-.025.343-.456.71-1.294 1.1a1.971 1.971 0 0 0-.666.44 3.832 3.832 0 0 0-.591.807c-.197.342-.407.794-.629 1.357-.221.562-.48 1.283-.776 2.163a59.522 59.522 0 0 1-1.442 3.887 34.88 34.88 0 0 1-1.516 3.19 35.747 35.747 0 0 1-1.775 2.933 91.38 91.38 0 0 1-2.144 3.043 36.857 36.857 0 0 0 6.73 4.547c2.415 1.27 5.372 2.517 8.873 3.74v1.613a78.867 78.867 0 0 0-2.995-.073c-.764 0-1.418.073-1.96.22a3.833 3.833 0 0 0-1.442.733 39.05 39.05 0 0 0-1.516 1.32c-.443.44-.85.648-1.22.623-.37-.024-.752-.183-1.146-.476-1.824-1.272-3.414-2.543-4.77-3.814a26.849 26.849 0 0 1-3.586-4.106 204.886 204.886 0 0 1-2.736 2.163 35.358 35.358 0 0 1-2.366 1.687 30.736 30.736 0 0 1-2.514 1.466c-.887.465-1.923.99-3.106 1.577v4.473c0 .391-.037.672-.11.843-.075.172-.235.306-.481.404-.937.44-1.726.782-2.367 1.026-.64.245-1.43.49-2.366.734-.345.049-.517-.147-.517-.587.049-1.124.098-2.114.147-2.97.05-.855.087-1.65.111-2.383.025-.733.037-1.467.037-2.2V24.786c-.148.05-.419.074-.813.074h-9.465c.69.342 1.319.672 1.885.99.567.317 1.196.672 1.886 1.063.444.244.69.501.74.77.049.269-.272.525-.962.77-.246.098-.542.269-.887.513-.345.245-.813.672-1.405 1.283-.592.612-1.356 1.467-2.292 2.567-.937 1.1-2.095 2.554-3.476 4.363h4.363l2.736-3.74c.345-.488.629-.733.85-.733.222 0 .604.22 1.146.66 1.085.978 1.972 1.797 2.663 2.457.69.66 1.38 1.356 2.07 2.09.937.929.764 1.393-.518 1.393H94.373v9.093h3.55l2.883-4.326c.394-.538.752-.82 1.072-.844.32-.024.727.232 1.22.77a30.95 30.95 0 0 1 2.034 2.347c.567.733 1.27 1.71 2.107 2.933.641.929.469 1.393-.517 1.393h-12.35v8.947c0 1.467.013 2.762.038 3.887.024 1.124.061 2.322.11 3.593 0 .39-.036.672-.11.843-.074.171-.259.306-.555.403-.542.245-.998.44-1.368.587-.37.147-.715.281-1.035.403-.32.123-.653.233-.998.33-.345.098-.764.196-1.257.294-.543.146-.814-.098-.814-.734.05-1.075.087-2.016.111-2.823l.074-2.31c.025-.733.037-1.454.037-2.163V50.672H80.62c-.592 0-1.183.05-1.775.147-.591.098-1.035.22-1.33.367l-1.332-3.154c.69.147 1.294.245 1.812.294.518.049 1.146.073 1.886.073h8.725v-9.093H78.77c-.591 0-1.183.049-1.774.147-.592.097-1.036.22-1.331.366l-1.331-3.006c.69.146 1.294.244 1.811.293.518.049 1.146.073 1.886.073h14.715c.542-1.27 1.208-3.03 1.997-5.28a61.489 61.489 0 0 0 1.996-7.04H82.763c1.874.978 3.39 1.87 4.548 2.677 1.159.807 2.021 1.577 2.588 2.31.567.733.875 1.43.924 2.09.05.66-.098 1.308-.443 1.943zm28.025-.293c-.246.049-.69.073-1.33.073-.642 0-1.16.025-1.554.074v26.4c.986-.832 1.837-1.553 2.551-2.164a28.505 28.505 0 0 0 1.96-1.833 36.107 36.107 0 0 0 1.775-1.98 46.913 46.913 0 0 0 1.996-2.604 46.341 46.341 0 0 1-3.401-7.956c-.888-2.762-1.553-6.099-1.997-10.01zm1.7-.147c.494 2.934 1.307 5.44 2.441 7.517a156.597 156.597 0 0 0 3.475 6.05 127.382 127.382 0 0 1 2.81-6.087c1.036-2.102 1.898-4.595 2.588-7.48h-11.313zm30.78 6.014c.641.049 1.258.085 1.85.11a14.34 14.34 0 0 0 1.774-.037c2.07-2.2 4.301-4.583 6.692-7.15a90.464 90.464 0 0 0 6.47-7.736c-2.514.488-4.523.916-6.026 1.283-1.504.367-2.712.697-3.624.99-.912.293-1.626.574-2.144.843-.518.27-1.048.55-1.59.843-.887.49-1.577.22-2.07-.806a36.25 36.25 0 0 1-1.11-2.42 28.927 28.927 0 0 1-.96-2.713c.69.097 1.367.158 2.033.183.665.024 1.294.061 1.885.11a82.441 82.441 0 0 0 3.29-5.097 115.503 115.503 0 0 0 3.328-5.94 148.183 148.183 0 0 0 2.958-5.976c.912-1.956 1.664-3.716 2.256-5.28a99.693 99.693 0 0 1 3.66 1.907 91.957 91.957 0 0 1 3.66 2.126c.838.49 1.233.88 1.183 1.174-.05.293-.493.488-1.33.586-.74.098-1.32.294-1.739.587-.419.293-1.047.953-1.885 1.98a373.093 373.093 0 0 1-5.361 6.673 228.152 228.152 0 0 1-6.322 7.333l11.24-.22a57.679 57.679 0 0 0 2.772-4.4c.863-1.515 1.713-3.08 2.551-4.693 1.38.88 2.638 1.699 3.771 2.457 1.134.757 2.12 1.43 2.958 2.016.444.343.69.611.74.807v-5.06c0-1.711-.013-3.031-.037-3.96a70.942 70.942 0 0 0-.111-2.566c1.627.635 3.02 1.356 4.178 2.163a68.588 68.588 0 0 0 3.29 2.163c4.29-1.271 8.196-2.652 11.72-4.143 3.525-1.491 6.619-3.141 9.28-4.95 1.233 1.124 2.22 2.102 2.959 2.933.74.831 1.479 1.76 2.218 2.787.986 1.369.666 1.955-.961 1.76a8.472 8.472 0 0 0-1.405-.184c-.493-.024-1.307.11-2.44.404-1.48.39-2.921.733-4.326 1.026a58.223 58.223 0 0 1-3.66.66c-.1 3.325-.185 6.38-.26 9.167a162.881 162.881 0 0 0-.036 7.7h5.767l2.589-4.327c.542-.929 1.306-.929 2.292 0 .838.734 1.738 1.552 2.699 2.457.961.904 1.787 1.699 2.477 2.383.493.489.69.905.592 1.247-.099.342-.567.513-1.405.513h-14.937c.197 3.96.542 7.297 1.035 10.01.493 2.713 1.084 5.048 1.775 7.003.69 1.956 1.49 3.63 2.403 5.023a39.373 39.373 0 0 0 2.995 3.997c.591.684 1.133 1.027 1.626 1.027.493 0 .863-.416 1.11-1.247.443-1.516.887-3.104 1.33-4.767a290.2 290.2 0 0 0 1.406-5.5l1.626.44c-.394 2.64-.678 4.84-.85 6.6-.173 1.76-.222 3.325-.148 4.694.074 1.368.308 2.652.703 3.85.394 1.197.96 2.53 1.7 3.996.592 1.173.703 1.98.333 2.42-.37.44-1.27.391-2.699-.147-3.155-1.222-5.903-2.835-8.245-4.84-2.341-2.004-4.326-4.522-5.952-7.553-1.627-3.03-2.897-6.6-3.809-10.706-.912-4.107-1.49-8.873-1.737-14.3h-9.465V58.74c2.07-.391 4.14-.794 6.211-1.21 2.07-.416 4.166-.843 6.285-1.283l.444 1.466c-3.401 1.271-6.224 2.371-8.467 3.3-2.243.93-4.042 1.76-5.398 2.494-1.355.733-2.366 1.405-3.031 2.016-.666.611-1.147 1.186-1.442 1.723-.345.587-.703.856-1.073.807-.37-.049-.677-.342-.924-.88-.345-.684-.776-1.638-1.294-2.86a53.411 53.411 0 0 1-1.442-3.813c.74-.098 1.479-.208 2.218-.33.74-.122 1.504-.257 2.293-.403V19.36c-.197.342-.616.513-1.257.513-.444 0-1.048.22-1.812.66-.764.44-1.64 1.149-2.625 2.127a390.71 390.71 0 0 1-8.282 7.956 362.804 362.804 0 0 1-9.391 8.47l15.159-1.76c-.74-1.76-1.923-3.691-3.55-5.793l.888-1.174c1.922.88 3.475 1.724 4.658 2.53 1.183.807 2.095 1.565 2.736 2.274.641.709 1.073 1.369 1.294 1.98.222.61.333 1.185.333 1.723 0 1.32-.222 2.53-.665 3.63-.444 1.1-1.085 1.65-1.923 1.65a4.669 4.669 0 0 1-1.664-.293c-.517-.196-.825-.832-.924-1.907a6.95 6.95 0 0 0-.333-1.43c-.172-.513-.308-.99-.407-1.43-3.45.88-6.26 1.625-8.43 2.237-2.168.61-3.906 1.136-5.212 1.576-1.307.44-2.28.831-2.921 1.174-.641.342-1.134.66-1.48.953-.443.391-.936.513-1.478.367-.542-.147-.937-.44-1.183-.88a31.111 31.111 0 0 0-1.257-2.384c-.444-.758-.838-1.65-1.183-2.676zm46.069-26.693c-1.874.489-3.574.819-5.103.99a57.59 57.59 0 0 1-4.436.33v14.813h9.465v-8.727c0-2.59.024-5.06.074-7.406zM156.8 47.52c1.331 4.79 1.812 8.506 1.442 11.146-.37 2.64-1.245 4.62-2.625 5.94-.444.44-.974.782-1.59 1.026a7.361 7.361 0 0 1-1.848.477c-.617.073-1.171.036-1.664-.11-.493-.147-.863-.367-1.11-.66-.344-.44-.48-.953-.406-1.54.074-.587.604-1.516 1.59-2.787a29.231 29.231 0 0 0 1.885-2.786c.518-.88.962-1.834 1.331-2.86.37-1.027.678-2.151.925-3.374.246-1.222.493-2.664.74-4.326l1.33-.147zm12.94 10.779c0 .733-.16 1.418-.48 2.053a6.93 6.93 0 0 1-1.183 1.687 5.702 5.702 0 0 1-1.479 1.137c-.518.268-.998.403-1.442.403-.542 0-1.035-.232-1.479-.697-.444-.464-.542-1.308-.296-2.53.395-2.249.58-4.4.555-6.453-.025-2.053-.284-4.375-.776-6.967l1.257-.513c2.12 2.933 3.537 5.366 4.251 7.297.715 1.93 1.073 3.459 1.073 4.583zm9.761-4.473c-.197 1.564-.542 2.799-1.035 3.703-.493.904-1.134 1.43-1.922 1.577-.345.097-.752-.013-1.22-.33-.469-.318-.752-.77-.85-1.357a56.835 56.835 0 0 0-1.59-6.27c-.617-1.931-1.69-3.899-3.217-5.903l1.109-.88c1.824 1.222 3.327 2.31 4.51 3.263 1.184.953 2.096 1.797 2.737 2.53.64.733 1.06 1.406 1.257 2.017.197.61.27 1.16.221 1.65zm72.485-40.553h-17.894c-1.331 0-2.367.171-3.106.513l-1.479-3.153c1.035.245 2.268.367 3.697.367h25.068V6.673c0-2.444-.05-4.62-.148-6.526 6.26 1.369 9.391 2.493 9.391 3.373 0 .489-.961 1.173-2.884 2.053V11h16.49l2.662-4.033c.69-1.027 1.306-1.54 1.849-1.54.542 0 1.922 1.014 4.14 3.043 2.219 2.029 3.328 3.336 3.328 3.923 0 .587-.616.88-1.849.88h-22.849c5.67 7.822 15.208 12.442 28.617 13.86l-.074 1.686c-1.774-.048-3.29.184-4.547.697-1.257.513-2.625 1.821-4.104 3.923-.247.392-.518.587-.814.587-.591 0-2.859-1.259-6.803-3.777-3.944-2.517-7.05-5.096-9.317-7.736-2.268-2.64-4.092-5.72-5.472-9.24h-1.257V20.9c0 1.71.05 3.495.148 5.353l.074 2.493c0 .391-.185.721-.555.99-.37.269-1.294.685-2.773 1.247s-2.464.843-2.957.843c-.296 0-.444-.415-.444-1.247l.148-5.133V16.06c-5.719 6.16-10.944 10.657-15.677 13.493 2.958.929 5.67 2.029 8.134 3.3h22.923l1.48-1.98c.492-.636.887-.954 1.182-.954.296 0 1.529.66 3.698 1.98 2.169 1.32 3.253 2.298 3.253 2.934 0 .635-.862 1.393-2.588 2.273v9.093c0 2.689.025 4.547.074 5.573l.074 2.934c0 .293-.074.525-.222.696-.148.171-.591.428-1.33.77-.74.343-1.628.624-2.663.844-1.035.22-1.824.33-2.366.33-.246 0-.37-.245-.37-.734V54.56h-24.993v1.247c0 .537-.124.916-.37 1.136-.246.22-1.01.501-2.292.844-1.282.342-2.514.513-3.698.513-.394 0-.566-.22-.517-.66.246-2.591.37-5.182.37-7.773V35.639c0-1.955-.074-3.91-.222-5.866-3.402 2.053-8.258 4.497-14.568 7.333l-.813-1.613c6.803-3.911 11.77-7.211 14.9-9.9 3.13-2.689 6.569-6.796 10.315-12.32zm-3.105 29.26h24.993v-7.26h-24.993v7.26zm24.993 2.64h-24.993v6.82h24.993v-6.82zm7.395 17.086 3.253-3.667c.641-.733 1.159-1.1 1.553-1.1.395 0 1.652.93 3.771 2.787 2.12 1.858 3.18 3.055 3.18 3.593 0 .538-.493.807-1.479.807h-58.047c-1.282 0-2.292.171-3.032.513l-1.774-3.3c1.035-.44 2.267-.318 3.697.367h48.878zm49.192-38.426c3.796-6.991 6.63-14.886 8.504-23.686a85.512 85.512 0 0 1 5.583 2.42c1.848.88 2.908 1.442 3.18 1.686.27.245.406.514.406.807 0 .293-.468.562-1.405.807-.937.244-1.627.843-2.07 1.796-.444.954-1.332 2.701-2.663 5.243h18.117l1.553-2.42c.592-.928 1.11-1.393 1.553-1.393.443 0 1.208.342 2.292 1.027a48.63 48.63 0 0 1 3.328 2.31c1.133.855 1.7 1.454 1.7 1.796 0 .587-1.133 1.418-3.401 2.494l-.296 27.646c-.148 5.769-.345 9.802-.591 12.1-.247 2.297-.641 4.18-1.184 5.646-.542 1.467-1.368 2.701-2.477 3.703-1.109 1.003-2.723 1.87-4.843 2.604-2.12.733-3.55 1.1-4.289 1.1-.493 0-.813-.391-.961-1.174-.296-1.564-1.122-2.896-2.477-3.996-1.356-1.1-3.858-2.31-7.506-3.63l.296-2.2c5.028 1.369 8.553 2.053 10.574 2.053 2.021 0 3.45-.293 4.289-.88.838-.586 1.405-1.43 1.7-2.53.296-1.1.543-3.825.74-8.176.197-4.351.345-9.411.444-15.18l.222-18.48h-20.187c-1.43 2.347-3.205 4.767-5.325 7.26 2.564.685 4.708 1.491 6.434 2.42h7.098l1.331-2.053c.543-.831 1.023-1.247 1.442-1.247.42 0 1.159.342 2.219 1.027a46.246 46.246 0 0 1 2.847 1.98c.838.635 1.257 1.247 1.257 1.833 0 .587-.814 1.1-2.44 1.54V45.1c0 1.662.049 2.982.147 3.96l.148 2.493c0 .343-.258.685-.776 1.027-.518.342-1.405.721-2.662 1.137-1.257.415-2.058.623-2.403.623-.345 0-.518-.293-.518-.88v-2.2h-8.652v2.64c0 .587-.172 1.002-.517 1.247-.345.244-1.196.586-2.551 1.026-1.356.44-2.305.66-2.847.66-.296 0-.42-.293-.37-.88.247-2.395.37-4.742.37-7.04V27.646c0-2.053-.025-3.52-.074-4.4-2.613 2.982-4.388 4.987-5.324 6.013l-1.257-1.173a97.724 97.724 0 0 0 1.7-3.153h-18.634c-1.33 0-2.366.171-3.106.513l-1.552-2.713c1.035.244 2.267.367 3.697.367h11.092l2.81-3.374c.394-.489.714-.733.96-.733.247 0 .962.513 2.145 1.54a25.116 25.116 0 0 1 3.18 3.3zm18.93 12.246v-8.653h-8.652v8.653h8.652zm0 12.687V38.499h-8.652v10.267h8.652zM311.236.88c3.599.978 6.298 1.968 8.097 2.97 1.8 1.002 2.7 2.237 2.7 3.703 0 .93-.457 1.895-1.369 2.897-.912 1.002-1.836 1.503-2.773 1.503-.936 0-1.577-.733-1.922-2.2-.345-1.466-.863-2.713-1.553-3.74-.69-1.026-1.972-2.322-3.845-3.886l.665-1.247zm12.127 12.32 2.588-3.52c.296-.44.567-.66.814-.66.542 0 1.639.855 3.29 2.566 1.652 1.712 2.477 2.812 2.477 3.3 0 .294-.443.44-1.33.44H308.5c-1.33 0-2.366.172-3.106.514l-1.922-3.007c1.035.245 2.268.367 3.697.367h16.194zm-1.774 19.433 2.292-3.154c.444-.635.826-.953 1.146-.953.32 0 1.27.819 2.847 2.457s2.366 2.652 2.366 3.043-.468.587-1.405.587h-17.377c-1.331 0-2.366.17-3.106.513l-1.774-2.86c1.035.245 2.267.367 3.697.367h11.314zm-6.508 10.34h6.655l1.48-2.054c.295-.39.566-.586.813-.586.246 0 .69.17 1.33.513l4.142 2.347c.591.342.887.696.887 1.063s-.665.941-1.996 1.723v10.193c0 .978.024 1.858.073 2.64l.148 1.834c0 .586-.9 1.27-2.699 2.053-1.799.782-2.81 1.173-3.031 1.173-.222 0-.333-.293-.333-.88v-4.18h-8.208v5.574c0 .44-.111.782-.333 1.026-.222.245-1.084.697-2.588 1.357s-2.379.99-2.625.99c-.247 0-.37-.11-.37-.33 0-.22.025-.758.074-1.614.05-.855.074-2.163.074-3.923V47.08c0-2.298-.074-4.546-.222-6.746 2.465.782 4.708 1.662 6.73 2.64zm7.469 13.86v-11.88h-8.208v11.88h8.208zm96.813 9.092c0 .44-.173.758-.518.954-.986.538-1.898.94-2.736 1.21-.838.269-1.8.5-2.884.696-.345.098-.579.086-.702-.036s-.16-.452-.111-.99c.05-1.027.099-1.907.148-2.64.05-.733.086-1.442.11-2.127a58.08 58.08 0 0 0 .038-2.09v-17.05c-2.81.294-5.41.563-7.801.807-2.391.245-4.487.465-6.286.66-1.8.196-3.266.38-4.4.55-1.133.171-1.873.306-2.218.404-.69.244-1.158.317-1.405.22-.246-.098-.419-.367-.518-.807a34.957 34.957 0 0 1-.739-2.86 25.7 25.7 0 0 1-.444-3.08c1.085.147 2.108.269 3.07.367.96.097 1.934.17 2.92.22a120.394 120.394 0 0 0 6.507-3.484c2.17-1.246 4.24-2.48 6.212-3.703a167.586 167.586 0 0 0 5.508-3.557c1.701-1.148 3.192-2.187 4.474-3.116-1.528.195-2.982.354-4.363.477-1.38.122-2.896.268-4.547.44-1.652.17-3.55.415-5.694.733s-4.72.77-7.727 1.356c-.543.098-.912.123-1.11.074-.197-.05-.394-.318-.591-.807-.542-1.564-1.035-3.349-1.479-5.353.74.098 1.602.159 2.588.183.986.025 1.972.037 2.958.037 3.55-2.591 6.569-5.011 9.058-7.26 2.49-2.249 4.277-4.058 5.361-5.427a201.53 201.53 0 0 1-7.986.734c-2.711.195-5.275.354-7.69.476-2.416.123-4.597.208-6.544.257a193.18 193.18 0 0 1-4.548.073l-.148-1.393a319.199 319.199 0 0 0 15.418-1.943 400.191 400.191 0 0 0 14.123-2.383c4.412-.832 8.43-1.687 12.053-2.567 3.624-.88 6.717-1.711 9.28-2.493a106.155 106.155 0 0 1 4.66 5.94c.69.977.948 1.613.776 1.906-.173.293-.752.318-1.738.073-.789-.195-1.824-.317-3.106-.366-1.282-.05-3.106.024-5.472.22a83.07 83.07 0 0 0-2.625.256c-1.11.123-2.366.245-3.771.367a312.934 312.934 0 0 1-9.946.697c.986.538 1.849.978 2.588 1.32.74.342 1.38.709 1.923 1.1.64.489.912.868.813 1.136-.098.27-.493.453-1.183.55a6.473 6.473 0 0 0-1.553.367c-.542.196-1.503.709-2.884 1.54-.69.44-1.515.929-2.477 1.467-.961.537-1.972 1.112-3.031 1.723-1.06.611-2.133 1.222-3.217 1.833-1.085.611-2.145 1.21-3.18 1.797l18.708.22c.641-.44 1.32-.966 2.034-1.577a146.47 146.47 0 0 0 2.144-1.87l2.108-1.87a74.82 74.82 0 0 1 1.922-1.65c3.106 1.858 5.398 3.398 6.877 4.62 1.085.88.937 1.418-.443 1.614-.69.097-1.43.268-2.219.513-.789.244-1.873.733-3.253 1.467-1.38.733-3.217 1.698-5.51 2.896a814.836 814.836 0 0 1-7.542 3.887 2344.687 2344.687 0 0 1-8.54 4.326 685.285 685.285 0 0 1-8.504 4.217l32.388-.587a56.304 56.304 0 0 0-4.363-3.41c-1.43-1.002-3.08-2.04-4.954-3.116l.517-1.32c4.043 1.075 7.284 2.04 9.724 2.896 2.44.856 4.326 1.724 5.657 2.604 1.331.88 2.218 1.833 2.662 2.86.444 1.026.666 2.248.666 3.666 0 1.076-.247 1.846-.74 2.31-.493.465-.936.697-1.33.697-.445 0-.95-.086-1.517-.257-.567-.17-1.023-.525-1.368-1.063a64.26 64.26 0 0 0-1.33-2.2c-.346-.538-.913-1.173-1.701-1.907-2.022.245-4.228.49-6.619.734-2.39.244-5.36.537-8.91.88v15.18c0 1.466.012 2.761.037 3.886.025 1.124.086 2.347.185 3.666zm25.141-6.82c0 1.516-.283 2.75-.85 3.704-.567.953-1.196 1.43-1.886 1.43-.394 0-.85-.171-1.368-.513-.517-.343-1.195-1.15-2.033-2.42-1.578-2.347-3.562-4.89-5.953-7.627-2.39-2.738-5.484-5.255-9.28-7.553l.666-1.173c4.436 1.32 8.01 2.603 10.722 3.85 2.711 1.246 4.806 2.468 6.285 3.666s2.465 2.347 2.958 3.447c.493 1.1.74 2.163.74 3.19zm-37.194-9.313c.69.392.986.734.887 1.027-.099.293-.518.465-1.257.513-.246 0-.555.11-.924.33-.37.22-1.122.746-2.256 1.577a87.181 87.181 0 0 1-4.51 3.08 138.931 138.931 0 0 1-5.361 3.263c-1.898 1.1-3.87 2.188-5.916 3.264a204.368 204.368 0 0 1-6.1 3.08l-.888-1.247c4.683-3.373 8.676-6.563 11.98-9.57 3.302-3.007 6.014-5.903 8.133-8.69 1.036.538 2.046 1.063 3.032 1.577a58.236 58.236 0 0 1 3.18 1.796zM483.714 29.7c.542.05 1.06.074 1.553.074h1.553c2.76-3.178 5.04-6.05 6.84-8.617 1.799-2.566 3.216-4.754 4.251-6.563h-10.278c-.592 0-1.183.049-1.775.147-.591.098-1.035.22-1.33.366l-1.332-3.006c.69.146 1.294.244 1.812.293.517.049 1.146.073 1.885.073h25.955l2.293-3.886c.394-.685.813-1.063 1.257-1.137.443-.073 1.06.232 1.848.917.986.88 1.861 1.699 2.625 2.456l2.182 2.164c.64.733.887 1.185.74 1.356-.149.172-.617.257-1.406.257h-23.514a30.885 30.885 0 0 1 2.994 1.54c.912.538 1.713 1.002 2.404 1.393.542.343.776.71.702 1.1-.074.391-.53.611-1.368.66-.591.05-1.306.428-2.144 1.137-.838.709-2.17 1.894-3.993 3.557a69.909 69.909 0 0 1-3.29 2.896 138.275 138.275 0 0 1-3.513 2.823l20.778-.66a46.322 46.322 0 0 0-2.255-3.813c-.863-1.32-1.91-2.64-3.143-3.96l.962-.88c2.76 1.467 4.942 2.714 6.544 3.74 1.602 1.027 2.822 1.931 3.66 2.714.838.782 1.38 1.478 1.627 2.09.246.61.37 1.234.37 1.87 0 .733-.111 1.442-.333 2.126a8.98 8.98 0 0 1-.814 1.833c-.32.538-.702.954-1.146 1.247-.443.293-.887.44-1.33.44-.494 0-.9-.159-1.22-.477-.321-.317-.63-1.039-.925-2.163a67.944 67.944 0 0 1-.407-1.503c-.172-.66-.333-1.21-.48-1.65-.69.146-1.356.28-1.997.403-.64.122-1.257.232-1.849.33V58.74c0 1.222.247 2.041.74 2.457.493.415 1.627.623 3.401.623.888 0 1.627-.11 2.219-.33.591-.22 1.072-.77 1.442-1.65.37-.88.677-2.163.924-3.85.246-1.687.493-3.972.74-6.857h1.626c0 2.25.074 4.01.222 5.28.148 1.271.382 2.237.702 2.897.32.66.765 1.112 1.332 1.357.566.244 1.269.488 2.107.733.394.098.653.232.776.403.124.171.062.55-.184 1.137-.543 1.32-1.085 2.383-1.627 3.19a5.525 5.525 0 0 1-2.108 1.87c-.862.44-1.947.758-3.253.953-1.307.196-2.946.293-4.918.293-2.267 0-4.054-.06-5.36-.183-1.307-.122-2.293-.379-2.959-.77-.665-.391-1.084-.929-1.257-1.613-.172-.685-.258-1.565-.258-2.64v-29.7a214.318 214.318 0 0 0-5.546 1.027c0 4.058-.111 7.602-.333 10.633-.222 3.031-.653 5.683-1.294 7.957-.641 2.273-1.504 4.265-2.588 5.976-1.085 1.711-2.502 3.24-4.252 4.584-1.75 1.344-3.858 2.59-6.322 3.74-2.465 1.148-5.374 2.334-8.726 3.556l-.592-1.467c2.662-1.564 4.955-3.006 6.877-4.326 1.923-1.32 3.562-2.64 4.918-3.96 1.355-1.32 2.44-2.726 3.253-4.217.814-1.49 1.455-3.214 1.923-5.17.468-1.955.776-4.24.924-6.856.148-2.616.222-5.708.222-9.277-.74.294-1.38.538-1.922.734-.543.195-1.085.415-1.627.66-.493.244-.838.33-1.036.256-.197-.073-.394-.354-.591-.843a27.493 27.493 0 0 0-1.072-2.347 57.827 57.827 0 0 1-1.516-3.3zm2.514 9.534c0 1.71-.394 3.055-1.183 4.033-.789.978-1.528 1.467-2.219 1.467-.443 0-.875-.086-1.294-.257-.419-.171-.677-.575-.776-1.21a15.276 15.276 0 0 1-.185-2.017c-.025-.758-.135-1.43-.333-2.016-3.155.733-5.767 1.38-7.838 1.943-2.07.562-3.783 1.039-5.139 1.43-1.356.391-2.428.758-3.217 1.1-.788.342-1.479.684-2.07 1.027-.444.244-.764.33-.961.256-.198-.073-.42-.33-.666-.77a176.241 176.241 0 0 1-1.405-3.08c-.345-.782-.74-1.809-1.183-3.08 1.38.147 2.637.22 3.771.22a143.777 143.777 0 0 0 5.879-7.333c1.75-2.347 3.167-4.498 4.252-6.453-2.12.44-3.833.807-5.14 1.1a47.985 47.985 0 0 0-3.18.807c-.813.244-1.466.464-1.959.66-.493.195-.961.415-1.405.66-.394.244-.714.33-.96.256-.247-.073-.494-.305-.74-.696a52.338 52.338 0 0 1-2.588-5.207c1.183.147 2.292.244 3.327.293 2.07-3.275 3.993-6.807 5.768-10.596 1.774-3.789 3.229-7.517 4.363-11.183a66.37 66.37 0 0 1 3.586 2.053c1.11.684 2.157 1.32 3.143 1.907 1.232.782 1.133 1.417-.296 1.906-.296.098-.789.38-1.48.844a7.538 7.538 0 0 0-1.848 1.796 261.806 261.806 0 0 1-5.102 7.26 246.763 246.763 0 0 1-4.51 6.013h10.204a66.416 66.416 0 0 0 2.366-4.033c.74-1.369 1.627-3.104 2.662-5.207.986.88 1.935 1.712 2.847 2.494.912.782 1.984 1.76 3.217 2.933.394.391.542.709.443.953-.098.245-.567.49-1.405.734-.295.097-.776.39-1.442.88-.665.489-1.466 1.246-2.403 2.273a317.02 317.02 0 0 0-2.033 2.273 866.502 866.502 0 0 1-3.18 3.557l-3.92 4.363a256.444 256.444 0 0 1-4.25 4.62l14.123-1.027c-.79-2.053-1.874-4.082-3.254-6.086l1.183-1.247a129.165 129.165 0 0 1 4.178 3.41c1.11.953 1.972 1.797 2.588 2.53.616.733 1.048 1.369 1.294 1.907.247.537.37 1.05.37 1.54zm-21.888 7.773c.197 2.884.32 5.23.37 7.04.05 1.809-.025 3.275-.222 4.4-.197 1.124-.505 2.016-.924 2.676-.42.66-.999 1.332-1.738 2.017-1.035.929-2.157 1.393-3.365 1.393-1.207 0-2.18-.342-2.92-1.026-.592-.538-.801-1.26-.629-2.164.173-.904.777-1.82 1.812-2.75a64.81 64.81 0 0 0 2.218-2.163 8.996 8.996 0 0 0 1.516-2.127c.419-.806.776-1.772 1.072-2.896.296-1.125.592-2.591.888-4.4h1.922zm41.705-40.26c0 1.516-.443 2.812-1.33 3.887-.888 1.076-1.899 1.613-3.032 1.613-.493 0-.912-.158-1.258-.476-.345-.318-.591-.844-.739-1.577-.197-1.222-.407-2.224-.629-3.006a10.901 10.901 0 0 0-.813-2.09c-.32-.612-.702-1.21-1.146-1.797a36.148 36.148 0 0 0-1.7-2.053l.96-1.247c2.219.733 3.969 1.369 5.25 1.907 1.282.537 2.256 1.063 2.921 1.576.666.514 1.085 1.04 1.258 1.577.172.538.258 1.1.258 1.687zm-30.465 50.38c0 .586-.16 1.185-.48 1.796a8.864 8.864 0 0 1-1.147 1.687 6.202 6.202 0 0 1-1.442 1.247c-.518.317-.974.476-1.368.476-.74 0-1.27-.293-1.59-.88-.32-.586-.382-1.735-.185-3.446.099-1.027.173-1.931.222-2.714.05-.782.025-1.576-.074-2.383a25.234 25.234 0 0 0-.48-2.64 71.273 71.273 0 0 0-.999-3.703l1.184-.587c1.38 1.76 2.489 3.239 3.327 4.437.838 1.198 1.479 2.212 1.923 3.043.443.831.74 1.528.887 2.09.148.562.222 1.088.222 1.577zm9.021-2.64c0 1.32-.345 2.493-1.035 3.52-.69 1.026-1.43 1.54-2.218 1.54-.444 0-.937-.245-1.48-.734-.542-.489-.813-1.075-.813-1.76 0-1.466-.246-3.08-.74-4.84-.492-1.76-1.552-3.91-3.179-6.453l1.11-1.1c1.774 1.37 3.204 2.579 4.288 3.63 1.085 1.051 1.935 1.956 2.551 2.713.616.758 1.023 1.406 1.22 1.944.198.537.296 1.05.296 1.54zM267.327 89.223c.449 0 .792.147 1.031.441.24.294.36.633.36 1.015v.133c-.03.294-.524 1.427-1.48 3.4-.389.853-.725 1.574-1.009 2.162-.284.589-.44.927-.47 1.016v.044l.09-.089c.119-.058.268-.161.447-.309 1.226-1.059 2.227-1.78 3.004-2.163.717-.353 1.39-.53 2.017-.53.15 0 .284.015.404.045.717.088 1.524.47 2.42 1.148a8.594 8.594 0 0 0 2.847 1.368c1 .265 1.785.397 2.353.397a4.75 4.75 0 0 0 1.838-.353c.508-.206.941-.309 1.3-.309.299 0 .538.074.717.22.21.177.314.398.314.663 0 .206-.06.442-.18.706-.268.618-.986 1.133-2.151 1.546-.926.176-1.778.264-2.555.264-.956 0-1.808-.132-2.555-.397-1.375-.5-2.466-1.06-3.273-1.677-.657-.471-1.165-.722-1.524-.75-.807 0-2.226 1.059-4.258 3.178a34.386 34.386 0 0 0-2.78 3.09c-.866 1.089-1.912 2.501-3.137 4.238-.12.176-.247.346-.381.507a1.73 1.73 0 0 1-.337.332c-.179.117-.35.183-.515.198a4.568 4.568 0 0 1-.336.022c-.18 0-.359-.044-.538-.132-.508-.265-.762-.662-.762-1.192v-.177c.09-.48.618-1.802 1.584-3.963-.686.474-1.395.949-2.122 1.425-2.003 1.31-3.975 2.347-5.917 3.112-.987.353-1.853.574-2.6.662-.747.089-1.3.133-1.659.133-.568 0-1.06-.059-1.48-.177-1.972-.588-3.107-1.486-3.406-2.693-.299-1.206-.448-2.104-.448-2.693 0-1.29.32-2.709.96-4.26-.815.117-1.644.271-2.484.464-1.285.294-2.361.589-3.228.883l-.583 1.06c-2.75 4.914-6.275 8.137-10.579 9.667-.598.206-1.068.31-1.412.31h-.65c-.478 0-.867-.074-1.165-.221-1.016-.412-1.524-1.178-1.524-2.296 0-1.177.821-2.531 2.465-4.061 3.018-2.885 6.515-5.048 10.49-6.49l.806-.309.224-.706c.24-.795.36-1.369.36-1.722v-.662c0-.5-.106-.883-.315-1.148-.209-.206-.508-.309-.896-.309-.658 0-1.554.28-2.69.839-1.823.883-3.9 2.28-6.23 4.194-2.96 2.53-5.933 5.768-8.921 9.712a76.974 76.974 0 0 0-1.95 2.626 13.46 13.46 0 0 0-1.233 2.186 103.51 103.51 0 0 0-1.434 3.399 552.168 552.168 0 0 1-3.654 8.763c-.881 2.045-1.546 3.517-1.995 4.414-.448.898-.821 1.494-1.12 1.788-.449.53-.912.795-1.39.795-.15 0-.299-.03-.448-.088a1.517 1.517 0 0 1-.336-.177 2.198 2.198 0 0 1-.337-.265c-.298-.323-.448-.736-.448-1.236 0-.53.18-1.354.538-2.472 1.464-4.797 3.975-10.05 7.531-15.76a9.5 9.5 0 0 0 .605-1.104c.194-.412.456-1 .785-1.766.328-.765.792-1.839 1.39-3.222.536-1.292 1.026-2.476 1.47-3.553-.725.475-1.342.871-1.852 1.191-.822.515-1.546.92-2.174 1.214-1.673.795-3.138 1.192-4.393 1.192h-.493c-2.57-.324-4.184-1.795-4.841-4.415a5.723 5.723 0 0 0-.09-.441c-.03-.324-.075-.515-.134-.574-.06-.059-.12-.088-.18-.088-.071 0-.162.037-.272.113l-.086.063c-.24.177-.643.5-1.21.971-.24.177-.509.383-.808.619-2.33 1.913-4.131 3.296-5.401 4.15-1.27.853-2.279 1.382-3.026 1.588a2.574 2.574 0 0 1-.807.133c-.478 0-.941-.147-1.39-.442-.597-.441-.896-.89-.896-1.346v-.773c0-.706.12-1.383.359-2.03.448-1.295 1.173-2.708 2.174-4.238.11-.168.22-.333.33-.494-.995.122-2.009.301-3.042.538-1.285.294-2.361.589-3.228.883l-.583 1.06c-2.749 4.914-6.275 8.137-10.579 9.667-.597.206-1.068.31-1.412.31h-.65c-.478 0-.866-.074-1.165-.221-1.016-.412-1.524-1.178-1.524-2.296 0-1.177.821-2.531 2.465-4.061 3.018-2.885 6.515-5.048 10.49-6.49l.806-.309.225-.706c.239-.795.358-1.369.358-1.722v-.662c0-.5-.104-.883-.314-1.148-.209-.206-.508-.309-.896-.309-.658 0-1.554.28-2.69.839-1.823.883-3.9 2.28-6.23 4.194-2.96 2.53-5.933 5.768-8.921 9.712a76.973 76.973 0 0 0-1.95 2.626 13.46 13.46 0 0 0-1.233 2.186c-.359.794-.837 1.927-1.434 3.399a552.156 552.156 0 0 1-3.654 8.763c-.881 2.045-1.546 3.517-1.995 4.414-.448.898-.821 1.494-1.12 1.788-.448.53-.912.795-1.39.795-.15 0-.299-.03-.448-.088a1.517 1.517 0 0 1-.336-.177 2.198 2.198 0 0 1-.337-.265c-.298-.323-.448-.736-.448-1.236 0-.53.18-1.354.538-2.472 1.464-4.797 3.975-10.05 7.531-15.76a9.5 9.5 0 0 0 .605-1.104c.194-.412.456-1 .785-1.766.328-.765.792-1.839 1.39-3.222.772-1.86 1.449-3.496 2.03-4.91a101.683 101.683 0 0 0-7.679 4.468l-.045.972a7.053 7.053 0 0 1-.269 1.677c-.986 2.943-3.227 5.621-6.724 8.035-1.195.794-2.36 1.383-3.496 1.765-1.076.354-1.987.53-2.735.53a4.03 4.03 0 0 1-1.255-.176c-.956-.383-1.434-1.075-1.434-2.075v-.089c.03-1.03.687-2.236 1.972-3.62.867-.912 2.16-2.045 3.878-3.399a104.56 104.56 0 0 1 5.536-4.061l1.03-.662-.313-.442a5.304 5.304 0 0 0-.403-.552c-.18-.22-.359-.434-.538-.64-.18-.206-.389-.441-.628-.706a84.275 84.275 0 0 1-.896-1.06c-.837-.941-1.39-1.7-1.66-2.273-.268-.574-.402-1.14-.402-1.7v-.353c0-.382.03-.677.09-.883a4.49 4.49 0 0 1 .313-.75c.478-.883 1.263-1.773 2.353-2.671 1.091-.898 2.16-1.538 3.205-1.92a4.321 4.321 0 0 1 1.166-.177c.926 0 1.629.397 2.107 1.192.12.206.194.397.224.574.03.176.045.427.045.75 0 .324-.015.574-.045.75-.03.177-.09.354-.18.53-.209.383-.44.604-.694.663a2.844 2.844 0 0 1-.605.088 1.53 1.53 0 0 1-.673-.177 1.114 1.114 0 0 1-.426-.353c-.104-.147-.201-.368-.291-.662l-.09-.353-.941.574c-.568.382-1.098.802-1.591 1.258-.493.456-.815.86-.964 1.214-.12.177-.18.368-.18.574 0 .059.016.132.045.22.03.236.202.56.516.972.314.412.8.986 1.457 1.722.388.412.754.83 1.098 1.258.344.426.59.743.74.949.15.206.284.382.403.53.12.147.194.22.224.22l.404-.22c.269-.148.582-.339.941-.574a85.115 85.115 0 0 1 4.124-2.296 66.188 66.188 0 0 1 3.9-1.898c.297-.129.575-.232.834-.31.413-1.028.717-1.808.914-2.339.15-.353.232-.581.247-.684.015-.103.022-.184.022-.243a.485.485 0 0 0-.045-.22 1.78 1.78 0 0 1-.09-.575c0-.353.09-.72.27-1.103.299-.618.687-1.06 1.165-1.325a1.35 1.35 0 0 1 .673-.176c.15 0 .313.03.493.088.388.118.687.368.896.75.12.148.18.383.18.707 0 .147-.015.309-.045.485-.09.56-.381 1.501-.874 2.826-.493 1.324-1.263 3.267-2.309 5.827.03 0 .254-.191.672-.574l1.704-1.677c3.616-3.62 6.903-6.137 9.862-7.55 1.584-.794 2.988-1.191 4.213-1.191.389 0 .763.044 1.121.132 1.465.412 2.309 1.104 2.533 2.075.224.971.336 1.766.336 2.384 0 .677-.09 1.354-.269 2.03a36.738 36.738 0 0 1 3.295-.595c1.18-.162 1.965-.258 2.353-.287h.449c.397 0 .74.035 1.03.107.282-.32.566-.62.852-.902 1.704-1.648 3.332-2.472 4.886-2.472h.404c.986.03 1.778.397 2.376 1.104.508.5.762 1.22.762 2.163v.618l.403-.044h.314c.807 0 1.42.412 1.838 1.236.06.147.12.375.18.684.059.309.119.655.178 1.037.09.766.21 1.347.36 1.744.148.397.343.714.582.95.299.294.56.478.784.551.224.074.5.11.83.11h.313c.807-.029 1.696-.28 2.668-.75.97-.47 2.353-1.295 4.146-2.472 1.405-.942 2.39-1.604 2.959-1.987.132-.079.26-.151.386-.218.458-1.14.792-1.995 1.003-2.563.15-.353.232-.581.247-.684.015-.103.022-.184.022-.243a.485.485 0 0 0-.045-.22 1.78 1.78 0 0 1-.09-.575c0-.353.09-.72.27-1.103.299-.618.687-1.06 1.165-1.325a1.35 1.35 0 0 1 .673-.176c.149 0 .313.03.493.088.388.118.687.368.896.75.12.148.18.383.18.707 0 .147-.015.309-.045.485-.09.56-.381 1.501-.874 2.826-.494 1.324-1.263 3.267-2.309 5.827.03 0 .254-.191.672-.574l1.704-1.677c3.616-3.62 6.903-6.137 9.862-7.55 1.584-.794 2.988-1.191 4.213-1.191.389 0 .762.044 1.121.132 1.464.412 2.309 1.104 2.533 2.075.224.971.336 1.766.336 2.384 0 .677-.09 1.354-.269 2.03a36.738 36.738 0 0 1 3.295-.595c1.18-.162 1.965-.258 2.353-.287l.45-.001c1.583-2.361 3.555-3.862 5.916-4.502a6.517 6.517 0 0 1 1.255-.133c.986 0 1.808.31 2.465.927.598.618.897 1.31.897 2.075 0 .177-.015.368-.045.574-.15.971-.747 1.928-1.793 2.87-.927.794-2.107 1.552-3.541 2.273-1.435.721-2.705 1.2-3.81 1.435-.18.03-.337.066-.471.11-.135.044-.217.081-.247.11-.06.089-.09.295-.09.619 0 .323.015.662.045 1.015.03.353.075.618.135.795.09.265.246.515.47.75.225.236.471.412.74.53.12.03.276.051.47.066.195.015.352.022.471.022h.404c.627 0 1.255-.08 1.883-.243.627-.161 1.404-.434 2.33-.816 1.256-.5 3.81-2.12 7.666-4.856.329-.236.628-.442.896-.618.3-.206.583-.398.852-.574.262-.19.512-.355.75-.495.017-.04.037-.081.057-.123.329-.677.568-1.192.717-1.545.15-.354.24-.589.27-.707.03-.117.044-.22.044-.309v-.353c0-.765.583-2.045 1.748-3.84.538-.825.957-1.37 1.255-1.634a1.509 1.509 0 0 1 1.031-.397zM150.42 107.587c-.06 0-.269.118-.627.353a95.21 95.21 0 0 1-1.345.972c-.538.382-1.076.78-1.614 1.192-.538.412-1.001.765-1.39 1.06a47.932 47.932 0 0 0-2.555 2.096c-.747.662-1.27 1.185-1.569 1.567-.149.177-.269.339-.358.486l-.18.22c0 .06.03.089.09.089s.157-.022.292-.066l.605-.199c1.673-.589 3.287-1.545 4.841-2.87 1.554-1.324 2.705-2.707 3.452-4.15.12-.205.209-.382.269-.529l.09-.22zm-9.324-16.863c.21 0 .419.058.628.176.538.236.807.648.807 1.236 0 .177-.06.39-.18.64s-.35.648-.694 1.192a90.958 90.958 0 0 1-1.502 2.274c-1.644 2.384-3.018 4.29-4.124 5.717-1.106 1.427-2.167 2.626-3.183 3.598-.598.588-1.038.993-1.322 1.214-.284.22-.576.404-.874.551-.568.265-1.061.398-1.48.398-.179 0-.343-.015-.493-.044-.269-.06-.545-.206-.829-.442a2.733 2.733 0 0 1-.65-.75c-.21-.471-.314-1.06-.314-1.766 0-.265.015-.56.045-.883.03-.294.105-.758.224-1.39.12-.633.24-1.237.359-1.81.12-.575.209-.935.269-1.082l.045-.089-.045-.044-.135.089c-.12.088-.284.213-.493.375-.209.162-.493.39-.852.684-.627.5-1.314 1.082-2.062 1.744a250.78 250.78 0 0 0-3.137 2.847c-.449.442-.882.832-1.3 1.17-.419.339-.703.567-.852.684-.359.206-.702.31-1.031.31-.299 0-.583-.089-.852-.265-.538-.295-.807-.766-.807-1.413v-.088c.049-.551.295-1.414.74-2.589-.843.59-1.718 1.18-2.622 1.772-2.003 1.31-3.975 2.347-5.918 3.112-.986.353-1.852.574-2.6.662-.747.089-1.3.133-1.658.133-.568 0-1.061-.059-1.48-.177-1.972-.588-3.107-1.486-3.406-2.693-.3-1.206-.449-2.104-.449-2.693 0-.122.003-.245.01-.37-.226.129-.461.26-.704.393-1.48.809-2.84 1.405-4.08 1.787-1.24.383-2.263.574-3.07.574a5.817 5.817 0 0 1-1.48-.176c-1.374-.5-2.345-1.545-2.913-3.135a14.33 14.33 0 0 1-.202-.993 28.972 28.972 0 0 1-.202-1.346c-.06-.471-.12-.876-.179-1.214-.06-.339-.105-.537-.134-.596 0-.06-.038-.096-.113-.11-.074-.015-.209.021-.403.11l-.874.397c-2.002.971-5.02 3.002-9.055 6.092-1.046.824-1.86 1.42-2.443 1.788-.583.368-.971.567-1.166.596-.194.03-.32.044-.38.044-.24 0-.479-.059-.718-.176a1.51 1.51 0 0 1-.56-.618 1.742 1.742 0 0 1-.202-.795v-.133c.03-.147.082-.33.157-.551.075-.221.157-.434.246-.64.36-.736 1.054-1.936 2.085-3.598a199.08 199.08 0 0 1 3.183-4.967c.613-.927 1.135-1.7 1.564-2.32l.272-.39c.216-.307.403-.566.562-.777.538-.589 1.046-.883 1.524-.883.269 0 .53.08.784.243.254.161.441.36.56.596.09.147.143.286.158.419.015.132.007.287-.023.463-.03.177-.09.427-.18.75l-.178.796c-.06.264-.105.47-.135.618-.03.323-.097.58-.202.772-.104.191-.246.36-.425.508a.564.564 0 0 1-.314.22 2.71 2.71 0 0 1-.583.045h-.628l-1.21 1.854c-.359.559-.672 1.045-.941 1.457-.21.353-.344.559-.404.618.03 0 .15-.06.359-.177.269-.176.642-.427 1.12-.75 4.155-2.973 6.994-4.46 8.518-4.46.478 0 .866.052 1.165.155.299.103.583.302.852.596.329.295.575.685.74 1.17.164.486.306 1.244.425 2.274.06.559.12 1 .18 1.324.06.324.127.581.201.773a2.8 2.8 0 0 0 .292.552c.329.5.866.75 1.614.75.328 0 .717-.059 1.165-.177 1.375-.353 2.772-.897 4.191-1.633 1.264-.655 2.261-1.205 2.992-1.65.141-.369.303-.746.482-1.131 1.734-3.444 4.065-5.563 6.993-6.357a6.517 6.517 0 0 1 1.256-.133c.986 0 1.808.31 2.465.927.598.618.897 1.31.897 2.075 0 .177-.015.368-.045.574-.15.971-.747 1.928-1.793 2.87-.927.794-2.107 1.552-3.542 2.273-1.434.721-2.704 1.2-3.81 1.435-.18.03-.336.066-.47.11-.135.044-.217.081-.247.11-.06.089-.09.295-.09.619 0 .323.015.662.045 1.015.03.353.075.618.134.795.09.265.247.515.471.75.224.236.47.412.74.53.12.03.276.051.47.066.195.015.352.022.471.022h.404c.627 0 1.255-.08 1.882-.243.628-.161 1.405-.434 2.331-.816 1.255-.5 3.81-2.12 7.666-4.856.328-.236.627-.442.896-.618.3-.206.583-.398.852-.574.35-.254.678-.463.986-.63l-.134.299c.627-1.398 1.21-2.65 1.748-3.753.538-1.103.926-1.802 1.165-2.097.419-.47.852-.706 1.3-.706.24 0 .479.059.718.177.388.206.605.419.65.64.044.22.067.39.067.507 0 .324-.075.78-.224 1.369-.15.618-.292 1.052-.426 1.302-.135.25-.336.434-.605.552-.24.088-.419.265-.538.53-.09.147-.24.449-.448.905-.21.456-.434.949-.673 1.479-.239.53-.448 1.008-.627 1.434-.18.427-.284.685-.314.773v.044c.06 0 .418-.294 1.076-.883a54.309 54.309 0 0 1 3.474-2.936c1.09-.838 1.92-1.39 2.488-1.655.508-.206.956-.31 1.344-.31.688 0 1.21.325 1.57.972.149.294.223.662.223 1.104 0 .53-.09 1.162-.269 1.898a195.139 195.139 0 0 0-.672 3.2c-.18.898-.269 1.406-.269 1.524 0 .03.03.044.09.044.09 0 .314-.162.672-.486.419-.441.964-1.045 1.636-1.81a47.31 47.31 0 0 0 2.085-2.56c.777-1.06 1.658-2.288 2.645-3.686a100.983 100.983 0 0 0 2.33-3.422c.18-.323.367-.61.56-.86.195-.25.337-.42.427-.508.299-.236.597-.353.896-.353zm37.924 11.08h-.045c-.06 0-.24.074-.538.221-.359.177-.762.397-1.21.662-.449.265-.867.515-1.255.75-2.003 1.296-3.587 2.59-4.752 3.885-.478.56-.717.883-.717.972 0 .03.03.044.09.044.119 0 .343-.044.672-.133.388-.117.896-.338 1.524-.662.627-.324 1.21-.677 1.748-1.06.568-.411 1.248-1 2.04-1.765.792-.765 1.412-1.442 1.86-2.03.18-.236.329-.442.448-.619l.135-.265zm54.106 0h-.045c-.06 0-.24.074-.538.221-.359.177-.762.397-1.21.662-.449.265-.867.515-1.256.75-2.002 1.296-3.586 2.59-4.751 3.885-.478.56-.717.883-.717.972 0 .03.03.044.09.044.119 0 .343-.044.672-.133.388-.117.896-.338 1.524-.662.627-.324 1.21-.677 1.748-1.06.568-.411 1.248-1 2.04-1.765.792-.765 1.412-1.442 1.86-2.03.18-.236.329-.442.448-.619l.135-.265zm-35.817-6.048c-.926.06-1.98.684-3.16 1.876-1.18 1.192-2.309 2.76-3.385 4.702-.687 1.236-1.03 2.001-1.03 2.296 0 .088.03.132.089.132.299 0 1.076-.486 2.331-1.457a.522.522 0 0 0 .134-.088 71.672 71.672 0 0 0 1.726-1.324l1.905-1.501c.419-.354.762-.64 1.031-.861.27-.221.471-.39.606-.508a2.17 2.17 0 0 0 .269-.265c.044-.059.067-.103.067-.132l-.045-.089c-.03-.088-.045-.257-.045-.507v-.795c0-.28.015-.522.045-.728.03-.147.045-.28.045-.398a.485.485 0 0 0-.045-.22c-.09-.089-.269-.133-.538-.133zm54.51-1.324c-.12 0-.27.015-.449.044a4.733 4.733 0 0 0-1.255.397c-1.255.618-2.36 1.663-3.317 3.135l-.404.618.538-.177a6.08 6.08 0 0 1 .628-.309l.807-.353c1.195-.618 2.129-1.214 2.801-1.788.673-.574 1.009-1.008 1.009-1.302a.387.387 0 0 0-.045-.177c-.06-.059-.164-.088-.314-.088zm-143.312 0c-.12 0-.269.015-.448.044a4.733 4.733 0 0 0-1.255.397c-1.255.618-2.361 1.663-3.317 3.135l-.258.394c.034.046.06.095.08.148l.312-.1a6.08 6.08 0 0 1 .628-.31l.807-.353c1.195-.618 2.129-1.214 2.801-1.788.673-.574 1.009-1.008 1.009-1.302a.387.387 0 0 0-.045-.177c-.06-.059-.164-.088-.314-.088zm270.575-7.505c.448 0 .821.25 1.12.75.15.207.224.413.224.619a.387.387 0 0 1-.044.176c-.03.236-.232.552-.606.95-.373.397-.978.978-1.815 1.743-.777.716-1.728 1.635-2.854 2.757l-.532.532c-2.177 2.186-4.948 5.063-8.314 8.63a181.327 181.327 0 0 1-2.644 2.73l-.368.368a61.69 61.69 0 0 1-.17.17c-.778.764-1.383 1.316-1.816 1.655-.433.338-.814.552-1.143.64-.24.088-.493.132-.762.132-.27 0-.538-.059-.807-.176a2.327 2.327 0 0 1-.762-.618 1.749 1.749 0 0 1-.404-.972 10.32 10.32 0 0 1-.044-.794c0-.5.06-1.163.179-1.987.15-1.06.433-2.546.852-4.458-.927.176-1.778.264-2.555.264-.957 0-1.808-.132-2.556-.397-1.374-.5-2.465-1.06-3.272-1.677-.657-.471-1.165-.722-1.524-.75-.807 0-2.226 1.059-4.259 3.178a34.386 34.386 0 0 0-2.779 3.09c-.867 1.089-1.912 2.501-3.138 4.238-.12.176-.246.346-.38.507a1.73 1.73 0 0 1-.337.332c-.18.117-.351.183-.515.198a4.568 4.568 0 0 1-.337.022c-.179 0-.358-.044-.538-.132-.508-.265-.762-.662-.762-1.192v-.177c.041-.218.173-.61.395-1.176l.144-.36c.258-.636.606-1.445 1.045-2.427a101.2 101.2 0 0 1-2.122 1.425c-2.002 1.31-3.974 2.347-5.917 3.112-.986.353-1.853.574-2.6.662-.747.089-1.3.133-1.658.133-.568 0-1.061-.059-1.48-.177-1.972-.588-3.108-1.486-3.406-2.693-.3-1.206-.449-2.104-.449-2.693 0-.566.062-1.157.185-1.774a101.992 101.992 0 0 0-7.088 4.158l-.045.972a7.053 7.053 0 0 1-.269 1.677c-.986 2.943-3.227 5.621-6.724 8.035-1.195.794-2.36 1.383-3.496 1.765-1.076.354-1.988.53-2.735.53a4.03 4.03 0 0 1-1.255-.176c-.956-.383-1.434-1.075-1.434-2.075v-.089c.03-1.03.687-2.236 1.972-3.62.867-.912 2.16-2.045 3.878-3.399a104.561 104.561 0 0 1 5.536-4.061l1.03-.662-.313-.442a5.304 5.304 0 0 0-.403-.552c-.18-.22-.36-.434-.538-.64a53.04 53.04 0 0 0-.628-.706 84.283 84.283 0 0 1-.897-1.06c-.836-.941-1.39-1.7-1.658-2.273-.27-.574-.404-1.14-.404-1.7v-.353c0-.382.03-.677.09-.883a4.49 4.49 0 0 1 .314-.75c.478-.883 1.263-1.773 2.353-2.671 1.091-.898 2.16-1.538 3.205-1.92a4.321 4.321 0 0 1 1.166-.177c.926 0 1.629.397 2.107 1.192.12.206.194.397.224.574.03.176.045.427.045.75 0 .324-.015.574-.045.75-.03.177-.09.354-.18.53-.209.383-.44.604-.694.663a2.844 2.844 0 0 1-.605.088 1.53 1.53 0 0 1-.673-.177 1.114 1.114 0 0 1-.426-.353c-.104-.147-.201-.368-.291-.662l-.09-.353-.941.574c-.568.382-1.098.802-1.591 1.258-.493.456-.815.86-.964 1.214-.12.177-.18.368-.18.574 0 .059.015.132.045.22.03.236.202.56.516.972.314.412.8.986 1.457 1.722.388.412.754.83 1.098 1.258.344.426.59.743.74.949.15.206.284.382.403.53.12.147.194.22.224.22l.404-.22c.269-.148.582-.339.941-.574a85.115 85.115 0 0 1 4.124-2.296 66.188 66.188 0 0 1 3.9-1.898l.089-.038.01-.017c1.712-3.23 3.98-5.227 6.804-5.993a6.517 6.517 0 0 1 1.255-.133c.987 0 1.808.31 2.466.927.598.618.896 1.31.896 2.075 0 .177-.014.368-.044.574-.15.971-.747 1.928-1.793 2.87-.927.794-2.107 1.552-3.542 2.273-1.434.721-2.704 1.2-3.81 1.435-.18.03-.336.066-.47.11-.135.044-.217.081-.247.11-.06.089-.09.295-.09.619 0 .323.015.662.045 1.015.03.353.075.618.134.795.09.265.247.515.471.75.224.236.47.412.74.53.12.03.276.051.47.066.195.015.352.022.471.022h.404c.627 0 1.255-.08 1.882-.243.628-.161 1.405-.434 2.331-.816 1.255-.5 3.81-2.12 7.666-4.856.328-.236.627-.442.896-.618.299-.206.583-.398.852-.574.261-.19.51-.354.748-.495l.059-.123c.328-.677.568-1.192.717-1.545.15-.354.24-.589.269-.707.03-.117.045-.22.045-.309v-.353c0-.765.583-2.045 1.748-3.84.538-.825.956-1.37 1.255-1.634a1.509 1.509 0 0 1 1.031-.397c.448 0 .792.147 1.031.441.24.294.359.633.359 1.015v.133c-.03.294-.523 1.427-1.48 3.4-.388.853-.724 1.574-1.008 2.162-.284.589-.44.927-.47 1.016v.044l.089-.089c.12-.058.269-.161.448-.309 1.225-1.059 2.227-1.78 3.004-2.163.717-.353 1.39-.53 2.017-.53.15 0 .284.015.403.045.717.088 1.524.47 2.42 1.148a8.594 8.594 0 0 0 2.847 1.368c1.001.265 1.786.397 2.354.397a4.75 4.75 0 0 0 1.838-.353l.173-.066a1.454 1.454 0 0 1 .006-.684c.03-.265.097-.574.202-.927.104-.354.224-.685.358-.994.135-.309.247-.522.337-.64.358-.324.747-.485 1.165-.485h.18c.477.058.851.338 1.12.838.12.148.18.457.18.927 0 .883-.225 2.355-.673 4.415-.329 1.442-.59 2.7-.785 3.775-.194 1.074-.291 1.67-.291 1.787 0 .03.015.045.045.045s.06-.015.09-.045a.98.98 0 0 0 .246-.22c.105-.118.254-.273.448-.464.195-.191.434-.434.718-.728.283-.295.62-.648 1.008-1.06.478-.5 1.046-1.103 1.704-1.81.986-1.03 1.897-1.972 2.734-2.825a190.483 190.483 0 0 1 3.967-4.084 292.278 292.278 0 0 1 4.326-4.26c1.315-1.265 2.122-2 2.42-2.207.39-.206.733-.309 1.032-.309zm61.278 3.311c.926 0 1.629.397 2.107 1.192.12.206.194.397.224.574.03.176.045.427.045.75 0 .324-.015.574-.045.75-.03.177-.09.354-.18.53-.209.383-.44.604-.694.663a2.844 2.844 0 0 1-.605.088 1.53 1.53 0 0 1-.673-.177 1.114 1.114 0 0 1-.426-.353c-.104-.147-.201-.368-.291-.662l-.09-.353-.941.574c-.568.382-1.098.802-1.591 1.258-.494.456-.815.86-.964 1.214-.12.177-.18.368-.18.574 0 .059.015.132.045.22.03.236.202.56.516.972.314.412.8.986 1.457 1.722.388.412.754.83 1.098 1.258.344.426.59.743.74.949.149.206.283.382.403.53.12.147.194.22.224.22l.404-.22c.269-.148.582-.339.941-.574a85.115 85.115 0 0 1 4.124-2.296 66.188 66.188 0 0 1 3.9-1.898c.747-.324 1.375-.486 1.883-.486.209 0 .403.03.582.088.419.148.628.383.628.707 0 .118-.015.235-.045.353-.15.53-.837 1.118-2.062 1.766a103.62 103.62 0 0 0-9.279 5.297l-.045.972a7.053 7.053 0 0 1-.269 1.677c-.986 2.943-3.227 5.621-6.724 8.035-1.195.794-2.36 1.383-3.496 1.765-1.076.354-1.988.53-2.735.53a4.03 4.03 0 0 1-1.255-.176c-.956-.383-1.434-1.075-1.434-2.075v-.089c.03-1.03.687-2.236 1.972-3.62.867-.912 2.16-2.045 3.878-3.399a104.56 104.56 0 0 1 5.536-4.061l1.03-.662-.313-.442a5.304 5.304 0 0 0-.404-.552c-.179-.22-.358-.434-.537-.64-.18-.206-.389-.441-.628-.706a84.275 84.275 0 0 1-.897-1.06c-.344-.387-.64-.743-.888-1.068-.266.3-.613.612-1.04.936a96.24 96.24 0 0 1-5.558 3.907c-2.002 1.31-3.974 2.347-5.917 3.112-.986.353-1.853.574-2.6.662-.747.089-1.3.133-1.658.133-.568 0-1.061-.059-1.48-.177-1.972-.588-3.108-1.486-3.406-2.693-.3-1.206-.449-2.104-.449-2.693 0-.31.019-.63.056-.955l.043-.329-.161.08c-.694.344-1.435.716-2.224 1.116-3.018 1.619-5.207 2.737-6.567 3.355-1.36.618-2.592 1.06-3.698 1.325a12.311 12.311 0 0 1-2.824.441c-.449 0-.807-.015-1.076-.044-1.763-.265-2.914-.868-3.452-1.81-.538-.942-.807-1.854-.807-2.737 0-.34.034-.698.1-1.072l-.862.476c-1.464.81-2.854 1.567-4.169 2.273-1.315.707-2.196 1.148-2.644 1.325-1.614.677-2.959 1.015-4.035 1.015-.418 0-.807-.059-1.165-.176-1.614-.648-2.421-1.958-2.421-3.93 0-.44.045-.941.135-1.5.179-.824.485-1.788.918-2.892A26.457 26.457 0 0 1 378.857 96c.508-.927.94-1.567 1.3-1.92.418-.324.821-.486 1.21-.486.329 0 .642.118.941.353.359.353.538.765.538 1.236v.177c-.06.294-.21.67-.448 1.126-.24.456-.5.905-.785 1.346-.284.442-.545.765-.784.971-.299.206-.658.957-1.076 2.252-.269.824-.41 1.42-.426 1.788-.015.368-.022.58-.022.64 0 .5.09.853.269 1.06.12.088.299.132.538.132.657 0 1.748-.324 3.272-.972.448-.206 1.337-.64 2.667-1.302a1228.142 1228.142 0 0 0 6.954-3.493c.486-.94 1.09-1.918 1.81-2.93a24.057 24.057 0 0 1 1.793-2.03c.717-.737 1.285-1.252 1.703-1.546.927-.559 1.823-.853 2.69-.883.418 0 .822.044 1.21.133 1.375.353 2.197 1.103 2.466 2.251.03.206.045.397.045.574 0 .618-.225 1.118-.673 1.501-.299.265-.612.397-.941.397h-.135c-.388 0-.732-.162-1.03-.485-.15-.147-.24-.28-.27-.398a2.065 2.065 0 0 1-.044-.485v-.221c0-.147-.015-.25-.045-.309-.06-.059-.254-.088-.583-.088-.687.03-1.494.53-2.42 1.5-.718.736-1.42 1.627-2.108 2.672-.178.27-.346.537-.502.797l.007-.02-.06.157a2.135 2.135 0 0 1-.3.481 13.68 13.68 0 0 0-.714 1.476c-.268.765-.403 1.413-.403 1.942 0 .795.299 1.325.897 1.59a4.496 4.496 0 0 0 1.569.265h.268c.628 0 1.345-.133 2.152-.398.717-.206 1.42-.449 2.107-.728.687-.28 1.584-.7 2.69-1.258 1.105-.56 2.66-1.369 4.662-2.428a115.475 115.475 0 0 1 4.303-2.208c.162-.08.318-.152.469-.216l-.02.04c1.733-3.444 4.064-5.563 6.992-6.357a6.517 6.517 0 0 1 1.255-.133c.987 0 1.808.31 2.466.927.598.618.896 1.31.896 2.075 0 .177-.015.368-.044.574-.15.971-.748 1.928-1.794 2.87-.926.794-2.106 1.552-3.54 2.273-1.435.721-2.705 1.2-3.811 1.435-.18.03-.336.066-.47.11-.135.044-.217.081-.247.11-.06.089-.09.295-.09.619 0 .323.015.662.045 1.015.03.353.075.618.134.795.09.265.247.515.471.75.224.236.47.412.74.53.12.03.276.051.47.066.195.015.351.022.471.022h.403c.628 0 1.256-.08 1.883-.243.628-.161 1.405-.434 2.331-.816 1.255-.5 3.81-2.12 7.666-4.856.328-.236.627-.442.896-.618.299-.206.583-.398.852-.574.648-.47 1.223-.79 1.725-.96a3.404 3.404 0 0 1-.067-.674v-.353c0-.382.03-.677.09-.883a4.49 4.49 0 0 1 .314-.75c.478-.883 1.262-1.773 2.353-2.671 1.091-.898 2.16-1.538 3.205-1.92a4.321 4.321 0 0 1 1.166-.177zm-131.029 17.35c-.06 0-.269.117-.627.352-.359.265-.807.59-1.345.972-.538.382-1.076.78-1.614 1.192-.538.412-1.001.765-1.39 1.06a47.932 47.932 0 0 0-2.555 2.096c-.747.662-1.27 1.185-1.569 1.567-.15.177-.269.339-.358.486l-.18.22c0 .06.03.089.09.089s.157-.022.291-.066l.606-.199c1.673-.589 3.287-1.545 4.84-2.87 1.555-1.324 2.705-2.707 3.453-4.15.12-.205.209-.382.269-.529l.09-.22zm129.146 0c-.06 0-.269.117-.627.352a95.21 95.21 0 0 1-1.345.972c-.538.382-1.076.78-1.614 1.192-.538.412-1.001.765-1.39 1.06a47.932 47.932 0 0 0-2.555 2.096c-.747.662-1.27 1.185-1.569 1.567-.15.177-.269.339-.358.486l-.18.22c0 .06.03.089.09.089s.157-.022.291-.066l.606-.199c1.673-.589 3.287-1.545 4.84-2.87 1.555-1.324 2.705-2.707 3.453-4.15.119-.205.209-.382.268-.529l.09-.22zm-16.541-13.156c-.12 0-.269.015-.448.044a4.733 4.733 0 0 0-1.255.397c-1.256.618-2.361 1.663-3.318 3.135l-.403.618.538-.177a6.08 6.08 0 0 1 .627-.309l.807-.353c1.196-.618 2.13-1.214 2.802-1.788.672-.574 1.009-1.008 1.009-1.302a.387.387 0 0 0-.045-.177c-.06-.059-.165-.088-.314-.088zm-92.926 0c-.12 0-.269.015-.448.044a4.733 4.733 0 0 0-1.255.397c-1.255.618-2.361 1.663-3.317 3.135l-.147.225a1.03 1.03 0 0 1-.098.34l.379-.124a6.08 6.08 0 0 1 .628-.309l.806-.353c1.196-.618 2.13-1.214 2.802-1.788.673-.574 1.009-1.008 1.009-1.302a.387.387 0 0 0-.045-.177c-.06-.059-.164-.088-.314-.088zM384.953 86c.448 0 .86.125 1.233.375.373.25.56.61.56 1.082 0 .588-.232.993-.695 1.214-.463.22-.844.33-1.143.33-.269 0-.538-.058-.807-.176-.627-.323-.941-.78-.941-1.368 0-.471.18-.832.538-1.082.358-.25.777-.375 1.255-.375z"/>
    </g>
</svg>
